:SAMPLES-PER-SECOND 30
:FULLY-SPECIFIED
:DEGREES
168
root  11.45028918 38.11155605 -0.1423113341 -4.298995972 -25.897995 2.654006958
lowerback  13.20969963 2.579410076 -4.1708498
upperback  6.450920105 2.834389925 -0.06181389838
thorax  -0.8110409975 1.297399998 1.891939998
lowerneck  0.7966799736 4.477419853 -8.023240089
upperneck  12.25189972 5.376939774 7.946410179
head  3.049540043 2.610049963 3.841449976
lclavicle  0 -9.442270133e-015 7.951389973e-016
lhumerus  12.21100044 -15.58640003 83.84889984
lradius  2.35425242e-031 -2.631793985e-031 131.8139954
lwrist  -7.062250077e-031 2.206953149e-031 26.69759941
lhand  -1.496451383e-031 -27.76390076 20.11240005
lfingers  90 7.125020027 -90
lthumb  89.89689403 5.08795885 91.16245106
rclavicle  0 -9.442270133e-015 7.951389973e-016
rhumerus  28.83869934 7.366650105 -78.04740143
rradius  -1.90661878e-031 2.972145499e-031 122.6800003
rwrist  0 -0 -43.2466011
rhand  -7.920061211e-032 -33.2840004 9.303460121
rfingers  -90 -7.125020027 -90
rthumb  -92.93752616 -24.25625642 -97.11982154
rfemur  -23.48690033 16.32830048 -0.4484730065
rtibia  -0 0 60.74269867
rfoot  -0 -16.66460037 -14.15380001
rtoes  5.373923086 19.29304026 -105.8922705
lfemur  -23.44039917 -0.4593069851 -6.799099922
ltibia  -0 0 64.29799652
lfoot  4.775564359e-032 -10.87660027 0.1574530005
ltoes  -4.250644065 -19.5611806 -102.515957
169
root  11.34388916 37.84933315 -0.1523013307 -4.167007446 -25.02900696 2.477996826
lowerback  12.83580017 2.322360039 -4.205510139
upperback  6.465060234 2.515490055 -0.06707239896
thorax  -0.5764449835 1.134909987 1.964239955
lowerneck  0.5496079922 4.484320164 -7.677340031
upperneck  12.36349964 5.388100147 7.973659992
head  3.130690098 2.635479927 3.80279994
lclavicle  0 -9.442270133e-015 7.951389973e-016
lhumerus  13.26340008 -15.7748003 83.52349854
lradius  2.344820926e-031 -2.640200535e-031 131.6089935
lwrist  -7.062250077e-031 8.827812596e-032 26.87590027
lhand  -1.496451383e-031 -27.76390076 20.11240005
lfingers  90 7.125020027 -90
lthumb  89.89689403 5.08795885 91.16245106
rclavicle  0 -9.442270133e-015 7.951389973e-016
rhumerus  30.27230072 6.871510029 -78.00540161
rradius  -1.886500255e-031 2.984955749e-031 122.2929993
rwrist  7.062250077e-031 5.296687558e-031 -43.50389862
rhand  -7.920061211e-032 -33.2840004 9.303460121
rfingers  -90 -7.125020027 -90
rthumb  -92.93752616 -24.25625642 -97.11982154
rfemur  -23.65390015 17.08909988 -0.9071450233
rtibia  -0 0 59.19480133
rfoot  -0 -17.64159966 -12.33920002
rtoes  5.373923086 19.29304026 -105.8922705
lfemur  -21.8939991 -0.06744740158 -6.76237011
ltibia  -0 0 62.81100082
lfoot  4.569838669e-032 -15.01060009 2.323719978
ltoes  -4.250644065 -19.5611806 -102.515957
170
root  11.23308873 37.58955527 -0.1558053329 -4.12600708 -24.0980072 2.559997559
lowerback  12.60389996 2.101850033 -4.497889996
upperback  6.369689941 2.206779957 -0.1064850017
thorax  -0.5389699936 0.9779199958 2.13448
lowerneck  0.300199002 4.393599987 -7.314819813
upperneck  12.54300022 5.272369862 7.901730061
head  3.246720076 2.594959974 3.731659889
lclavicle  0 -9.442270133e-015 7.951389973e-016
lhumerus  14.12930012 -16.14419937 83.34739685
lradius  2.334018935e-031 -2.64975464e-031 131.375
lwrist  -7.062250077e-031 6.620859447e-032 26.82979965
lhand  -1.496451383e-031 -27.76390076 20.11240005
lfingers  90 7.125020027 -90
lthumb  89.89689403 5.08795885 91.16245106
rclavicle  0 -9.442270133e-015 7.951389973e-016
rhumerus  31.54770088 6.272699833 -77.94950104
rradius  -1.868231193e-031 2.996423909e-031 121.9430008
rwrist  7.062250077e-031 3.531125038e-031 -43.71390152
rhand  -7.920061211e-032 -33.2840004 9.303460121
rfingers  -90 -7.125020027 -90
rthumb  -92.93752616 -24.25625642 -97.11982154
rfemur  -23.88279915 17.50160027 -1.545259953
rtibia  -0 0 58.06409836
rfoot  -0 -19.59029961 -10.37269974
rtoes  5.373923086 19.29304026 -105.8922705
lfemur  -20.46980095 0.1621759981 -6.910130024
ltibia  -0 0 60.86009979
lfoot  9.339602227e-032 -19.05559921 3.714570045
ltoes  -4.250644065 -19.5611806 -102.515957
171
root  11.12484444 37.33066649 -0.1637791085 -4.097000122 -23.01699829 2.819000244
lowerback  12.46650028 1.863839984 -4.94810009
upperback  6.194849968 1.850630045 -0.2122099996
thorax  -0.6304680109 0.7994679809 2.325500011
lowerneck  0.1611779928 4.301400185 -7.046020031
upperneck  12.63920021 5.133240223 8.015589714
head  3.311929941 2.545419931 3.726880074
lclavicle  0 -9.442270133e-015 7.951389973e-016
lhumerus  14.92000008 -16.57169914 83.20349884
lradius  2.320995254e-031 -2.661169869e-031 131.0939941
lwrist  -1.412450015e-030 2.648343779e-031 26.57010078
lhand  -1.496451383e-031 -27.76390076 20.11240005
lfingers  90 7.125020027 -90
lthumb  89.89689403 5.08795885 91.16245106
rclavicle  0 -9.442270133e-015 7.951389973e-016
rhumerus  32.67229843 5.620830059 -78.0121994
rradius  -1.856135181e-031 3.003931795e-031 121.711998
rwrist  1.412450015e-030 7.062250077e-031 -43.77320099
rhand  -7.920061211e-032 -33.2840004 9.303460121
rfingers  -90 -7.125020027 -90
rthumb  -92.93752616 -24.25625642 -97.11982154
rfemur  -24.32110023 17.43939972 -2.290090084
rtibia  -0 0 57.52730179
rfoot  -0 -20.32830048 -11.51720047
rtoes  5.373923086 19.29304026 -105.8922705
lfemur  -19.41250038 0.2391570061 -7.171790123
ltibia  -0 0 58.84400177
lfoot  4.778805101e-032 -22.53549957 3.394540071
ltoes  -4.250644065 -19.5611806 -102.515957
172
root  11.02042236 37.08399975 -0.1996044334 -3.953994751 -21.77099609 3.052993774
lowerback  12.37720013 1.538400054 -5.423759937
upperback  5.972970009 1.372210026 -0.3259440064
thorax  -0.7824850082 0.5631710291 2.536789894
lowerneck  0.1868599951 4.274539948 -6.801859856
upperneck  12.50150013 5.07159996 8.233340263
head  3.269690037 2.535219908 3.748600006
lclavicle  0 -9.442270133e-015 7.951389973e-016
lhumerus  15.77910042 -16.88660049 83.04160309
lradius  2.300678213e-031 -2.67875415e-031 130.6580048
lwrist  -1.412450015e-030 2.648343779e-031 26.26989937
lhand  -1.496451383e-031 -27.76390076 20.11240005
lfingers  90 7.125020027 -90
lthumb  89.89689403 5.08795885 91.16245106
rclavicle  0 -9.442270133e-015 7.951389973e-016
rhumerus  33.65269852 5.081319809 -78.16020203
rradius  -1.849472265e-031 3.008038626e-031 121.5849991
rwrist  7.062250077e-031 3.531125038e-031 -43.81240082
rhand  -7.920061211e-032 -33.2840004 9.303460121
rfingers  -90 -7.125020027 -90
rthumb  -92.93752616 -24.25625642 -97.11982154
rfemur  -24.73259926 17.05599976 -3.055890083
rtibia  -0 0 57.88180161
rfoot  -0 -21.17320061 -12.01169968
rtoes  5.373923086 19.29304026 -105.8922705
lfemur  -19.02820015 0.2131190002 -7.316810131
ltibia  -0 0 57.29119873
lfoot  4.866616527e-032 -24.90920067 1.629040003
ltoes  -4.250644065 -19.5611806 -102.515957
